PathFileType	4	(X/Y/Z)	/Users/mathieubourgeois/Desktop/Analyse/Traitement/Sujet_01/Data/Transformed_Sujet_01_velo_60.trc
DataRate	CameraRate	NumFrames	NumMarkers	Units	OrigDataRate	OrigDataStartFrame	OrigNumFrames
120.000000	120.000000	6	36	mm	120.000000	241	1931
Frame#	Time	C7			RFHD			LFHD			RBHD			LBHD			RSHO			LSHO			CLAV			STRN			T10			RBWT			LBWT			RFWT			LFWT			RRAD			RWRA			RWRB			RCAR			RHUM			LHUM			LRAD			LWRA			LWRB			LCAR			RKNI			RKNE			LKNI			LKNE			RANE			RANI			RTOE			RHEE			LTOE			LANI			LANE			LHEE			
		X1	Y1	Z1	X2	Y2	Z2	X3	Y3	Z3	X4	Y4	Z4	X5	Y5	Z5	X6	Y6	Z6	X7	Y7	Z7	X8	Y8	Z8	X9	Y9	Z9	X10	Y10	Z10	X11	Y11	Z11	X12	Y12	Z12	X13	Y13	Z13	X14	Y14	Z14	X15	Y15	Z15	X16	Y16	Z16	X17	Y17	Z17	X18	Y18	Z18	X19	Y19	Z19	X20	Y20	Z20	X21	Y21	Z21	X22	Y22	Z22	X23	Y23	Z23	X24	Y24	Z24	X25	Y25	Z25	X26	Y26	Z26	X27	Y27	Z27	X28	Y28	Z28	X29	Y29	Z29	X30	Y30	Z30	X31	Y31	Z31	X32	Y32	Z32	X33	Y33	Z33	X34	Y34	Z34	X35	Y35	Z35	X36	Y36	Z36	

242	2.008333333333333	-36.84709930419925	1462.361572265625	254.1415863037109	105.6068267822265	1570.60205078125	331.2299804687499	108.7825469970703	1584.223510742188	206.2540740966796	-43.68966293334965	1541.875244140625	331.1604003906249	-46.31225204467776	1553.013671875	199.1206054687499	-22.49638366699223	1391.594604492188	360.7927856445312	-25.03995704650881	1381.129272460938	134.434844970703	1.006397128105133	1332.829956054688	251.9522552490234	-51.79071426391604	1226.1748046875	257.0717163085937	-236.5173797607422	1379.9677734375	259.4930419921874	-420.1921386718751	1111.774780273438	322.5681762695311	-419.7845458984375	1101.340087890625	203.4914550781249	-248.7631835937501	1083.537353515625	375.9653320312499	-237.100814819336	1071.603515625	151.5829010009765	89.91343688964838	1141.983520507812	449.2152099609374	299.9786071777343	1037.50537109375	385.6151733398438	325.8480529785156	1052.585083007812	445.0288696289062	404.7972717285156	1029.083740234375	376.0469665527344	138.7512664794921	1182.666870117188	472.2179565429687	151.5839080810547	1183.66015625	51.56201171874995	98.18824768066405	1146.179443359375	64.7180557250976	319.544921875	1045.976928710938	135.4555511474609	340.5978698730469	1058.94189453125	73.37593078613278	406.8032531738281	1035.053100585938	138.849365234375	-3.488760471344035	885.9317626953125	337.1199035644531	4.200330257415716	915.7985229492188	457.6413269042968	-115.1679611206055	659.7802734375	205.9969787597656	-140.8486785888672	644.0556640625	83.66949462890619	-195.5198516845704	641.371826171875	425.8242492675781	-165.2581024169922	637.7493896484375	348.9513854980468	-30.05799102783208	549.6585083007812	432.2216186523437	-263.6998291015626	604.1544799804688	377.123077392578	-20.00342369079592	205.8082580566406	133.5190277099609	-172.4993896484375	308.0040893554688	178.7026824951171	-194.0330047607422	303.4217834472656	104.6465454101562	-264.1134948730469	272.6329040527344	144.2998504638671	
243	2.016666666666667	-36.9999809265137	1462.323364257812	254.3880462646484	105.509536743164	1570.29931640625	331.5936889648436	108.4953460693359	1584.252685546875	206.6978607177734	-43.77508926391606	1541.52783203125	331.640655517578	-46.57958221435549	1552.982666015625	199.6267700195312	-22.67195510864262	1391.55029296875	360.9794921874999	-25.21597480773928	1381.092529296875	134.707290649414	0.7599064111709286	1332.692138671875	252.1879577636718	-52.04383468627933	1226.0810546875	257.2574157714843	-236.6508026123047	1379.95263671875	259.8127441406249	-420.6057128906251	1111.813110351562	322.7564392089843	-420.1967468261719	1101.427856445312	203.6519317626952	-249.2459564208985	1083.35791015625	376.1740722656249	-237.515609741211	1071.684814453125	151.7638092041015	89.78440093994135	1141.933715820312	449.3269348144531	299.8789978027343	1037.532592773438	385.5945129394531	325.7526550292968	1052.603637695312	444.9859313964844	404.7122497558593	1029.135375976562	376.0102233886719	138.6335449218749	1182.625732421875	472.3159179687499	151.4524993896484	1183.699584960938	51.64340591430659	98.09335327148436	1146.204223632812	64.70923614501947	319.4647216796875	1045.988647460938	135.4434356689453	340.5192565917969	1058.985717773438	73.35587310791013	406.7130432128906	1035.089477539062	138.8179168701172	-2.620247840881389	886.566650390625	337.0659179687499	4.557971000671331	916.8021850585938	457.2040710449218	-114.2857437133789	659.944091796875	205.002944946289	-141.0233154296875	645.0012817382812	82.94749450683588	-189.4185638427735	638.090087890625	425.9801025390624	-160.0519561767579	635.1583251953125	348.7163391113281	-21.87926673889165	550.651611328125	432.3898315429687	-256.8164672851563	599.2285766601562	377.4664611816405	-28.74125480651857	205.1472625732422	133.3793487548828	-179.9803771972657	309.6326599121094	178.6529998779296	-200.8818359375	306.1319885253906	104.4880142211914	-271.6929016113281	276.3463134765625	143.6317443847656	
244	2.025	-37.12887191772464	1462.271240234375	254.5885162353515	105.3996658325195	1570.0205078125	331.9368286132811	108.2097854614258	1584.277954101562	207.0310821533202	-43.85914611816411	1541.15283203125	332.0979614257811	-46.86656188964846	1552.946166992188	200.1424102783202	-22.83998489379887	1391.492065429688	361.1100769042968	-25.36846160888674	1381.036865234375	134.9226684570312	0.5432051420211483	1332.543090820312	252.395538330078	-52.26367950439456	1225.995361328125	257.4533996582031	-236.7756500244141	1379.951293945312	260.1343994140624	-421.0478820800782	1111.823974609375	322.9383239746093	-420.5744323730469	1101.4765625	203.7794189453124	-249.7117309570313	1083.181640625	376.4092407226561	-237.9137115478516	1071.843872070312	151.937774658203	89.64691162109369	1141.896362304688	449.4577026367187	299.7905578613281	1037.568481445312	385.5802001953125	325.6646118164062	1052.638793945312	444.9674072265625	404.6204833984374	1029.19384765625	375.9977416992188	138.5227661132812	1182.593017578125	472.4199523925781	151.3342132568359	1183.700805664062	51.69251632690425	97.97776794433592	1146.213989257812	64.70207977294916	319.3912963867188	1046.01318359375	135.4149627685547	340.4442749023438	1059.036987304688	73.337043762207	406.6396789550781	1035.107788085938	138.7786102294922	-1.845970034599345	886.864501953125	337.0279846191406	4.746062755584661	917.2582397460938	456.8820190429687	-113.9662399291992	660.839599609375	204.2089691162109	-140.6329498291016	646.2217407226562	82.16033935546869	-183.2709960937501	634.3003540039062	426.2664489746093	-154.3758392333985	632.0826416015625	348.6693725585937	-13.95856666564947	551.1886596679688	432.8005676269531	-249.7952880859376	593.8289794921875	377.7843322753905	-37.44145584106447	204.9629364013672	133.1770782470703	-187.372802734375	311.8515930175781	178.2660217285156	-207.6879425048828	308.8824768066406	104.2198486328125	-279.1331481933594	280.7372741699219	142.6374816894531	
245	2.033333333333333	-37.22748565673831	1462.218872070312	254.7584686279296	105.317886352539	1569.743774414062	332.1789550781249	107.9162445068359	1584.277587890625	207.2987518310546	-43.92372512817387	1540.805786132812	332.5283813476561	-47.13956069946291	1552.884521484375	200.6337738037109	-22.95819091796879	1391.434936523438	361.2080383300781	-25.49885559082033	1380.980712890625	135.124771118164	0.365449607372253	1332.382690429688	252.5680694580077	-52.42142486572268	1225.885864257812	257.6582641601562	-236.8831634521485	1379.950073242188	260.4115295410155	-421.4704895019532	1111.802978515625	323.078887939453	-420.9471435546875	1101.50634765625	203.9470367431639	-250.1372222900391	1082.9853515625	376.6244812011718	-238.315414428711	1072.013671875	152.1368103027343	89.52168273925776	1141.866943359375	449.6003112792968	299.6956787109374	1037.615966796875	385.5677185058594	325.5957946777343	1052.66259765625	444.9372253417969	404.5446777343749	1029.259887695312	375.979248046875	138.4168701171874	1182.560180664062	472.5121154785156	151.2072143554688	1183.739501953125	51.73058319091792	97.87866973876952	1146.252197265625	64.66206359863276	319.32861328125	1046.057373046875	135.3790435791015	340.36669921875	1059.069580078125	73.31317901611325	406.5711975097656	1035.13232421875	138.735107421875	-1.099827647209209	886.7637329101562	336.9725036621093	4.868503570556585	917.1233520507812	456.6504211425781	-114.1125793457032	662.380615234375	203.6830596923828	-139.8743896484375	647.7374267578125	81.3199844360351	-177.0679931640626	629.9810791015625	426.5035400390624	-148.2696380615235	628.5101318359375	348.8575744628906	-5.40752983093267	550.2473754882812	432.2994384765624	-242.6823120117188	588.0115966796875	378.0549011230468	-46.05843734741212	205.3423614501953	133.0227813720703	-194.6531829833985	314.6439208984375	177.8626098632812	-214.3619079589844	312.1688537597656	103.931167602539	-286.4083251953125	285.6801452636719	141.6334381103515	
246	2.041666666666667	-37.33076477050784	1462.148803710938	254.8851318359374	105.237319946289	1569.49072265625	332.3990478515624	107.5986633300781	1584.281616210938	207.5395507812499	-44.00408554077153	1540.440063476562	332.9436950683593	-47.42983627319338	1552.810424804688	201.0663146972655	-23.07359886169438	1391.389404296875	361.3075866699218	-25.66850090026857	1380.871704101562	135.2908935546874	0.1984203606843639	1332.228515625	252.7393341064452	-52.60554122924808	1225.753295898438	257.8804931640624	-236.9896850585938	1379.950439453125	260.6717834472655	-421.8389282226563	1111.758056640625	323.2117309570311	-421.2241516113281	1101.533813476562	204.0437927246093	-250.5418701171876	1082.798095703125	376.855010986328	-238.6668853759766	1072.205688476562	152.3260650634765	89.41371154785151	1141.8212890625	449.7656249999999	299.6068420410156	1037.645629882812	385.5469970703125	325.5173645019531	1052.669067382812	444.9158935546875	404.4859619140624	1029.312744140625	375.8869323730469	138.3416442871093	1182.506713867188	472.5937805175781	151.0848693847656	1183.769409179688	51.80068588256831	97.80123901367186	1146.2841796875	64.58831024169916	319.2607116699219	1046.077880859375	135.3460388183593	340.2976379394531	1059.10302734375	73.26505279541013	406.5185241699219	1035.1533203125	138.6936187744141	-0.4152634143829758	886.3167724609375	336.7884216308593	4.920685291290227	916.4267578125	456.4417724609374	-112.7087783813477	663.8693237304688	202.7902069091797	-138.7769012451172	649.4863891601562	80.40735626220697	-170.8318328857422	625.1497192382812	426.7742309570312	-143.2307739257813	624.5813598632812	349.4566345214843	2.35012340545649	549.5435791015625	432.7505798339843	-235.5100097656251	581.7925415039062	378.3232116699218	-54.54066848754884	206.1941223144531	132.8895416259766	-201.6733093261719	317.9696044921875	177.5285034179687	-220.8031311035156	315.9020385742188	103.6946563720703	-293.4924926757812	291.0492858886719	140.9360198974609	
247	2.05	-37.41577911376956	1462.065307617188	255.002227783203	105.1594085693359	1569.17529296875	332.5565795898436	107.3013000488281	1584.27001953125	207.7113189697265	-43.1467666625977	1539.8916015625	331.8746337890624	-47.69890213012697	1552.73388671875	201.4337158203124	-23.16444396972661	1391.311767578125	361.3884582519531	-25.82593727111818	1380.770263671875	135.4295501708984	0.006199679803072236	1332.05810546875	252.9099731445312	-52.79486846923831	1225.676635742188	258.0491638183593	-237.0775146484375	1379.935546875	260.916046142578	-422.0858764648438	1111.888549804688	323.3307800292968	-421.5127563476562	1101.556274414062	204.1723175048827	-250.8827209472657	1082.60546875	377.0614624023436	-238.9483184814453	1072.390991210938	152.4781341552734	89.33075714111322	1141.7666015625	449.9400634765624	299.5430603027343	1037.640991210938	385.5344848632812	325.4590454101562	1052.669067382812	444.8975830078125	404.4218749999999	1029.370483398438	375.8585510253906	138.271987915039	1182.456909179688	472.7196655273437	150.9796752929688	1183.75146484375	51.82710647583003	97.6911163330078	1146.264282226562	64.55226135253901	319.2108154296875	1046.0888671875	135.2936401367187	340.240478515625	1059.121459960938	73.23535156249997	406.4870300292969	1035.1552734375	138.6340637207031	0.1950519531964843	885.49267578125	336.6761474609374	4.916551589965764	915.1563110351562	456.3180541992187	-110.7717971801758	665.5567626953125	201.8153381347656	-137.2628479003906	651.4898071289062	79.42077636718744	-164.5285034179688	619.82763671875	426.9842834472656	-135.2615509033204	619.3543701171875	349.0671081542968	10.197431564331	548.007080078125	432.9252929687499	-228.2494506835938	575.1406860351562	378.5026245117187	-62.96281814575197	207.5358123779297	132.7377471923828	-208.3562622070313	321.9513244628906	177.2176971435546	-227.0837707519531	320.1376037597656	103.4041061401367	-300.3598022460938	296.7190856933594	140.8616180419921	
